<svg xmlns="http://www.w3.org/2000/svg" viewBox="0 0 900 560" width="900" height="560" font-family="Inter, 'Helvetica Neue', Arial, sans-serif">
<rect width="900" height="560" fill="#f0f6fc"/>
<text x="40.0" y="34.0" fill="#0c2a52" font-size="20" text-anchor="start" font-weight="700" font-family="'Space Grotesk', Inter, sans-serif">Days to project completion · n = 10,000</text>
<line x1="40.0" y1="64.0" x2="872.0" y2="64.0" stroke="#d5e1f0" stroke-width="1"/>
<line x1="40.0" y1="165.0" x2="872.0" y2="165.0" stroke="#d5e1f0" stroke-width="1"/>
<line x1="40.0" y1="266.0" x2="872.0" y2="266.0" stroke="#d5e1f0" stroke-width="1"/>
<line x1="40.0" y1="367.0" x2="872.0" y2="367.0" stroke="#d5e1f0" stroke-width="1"/>
<line x1="40.0" y1="468.0" x2="872.0" y2="468.0" stroke="#d5e1f0" stroke-width="1"/>
<rect x="43.7" y="464.9" width="26.0" height="3.1" rx="1.5" fill="#2a4a7c" stroke="#1c3a66" stroke-width="1"/>
<rect x="76.9" y="456.5" width="26.0" height="11.5" rx="1.5" fill="#2a4a7c" stroke="#1c3a66" stroke-width="1"/>
<rect x="110.2" y="440.9" width="26.0" height="27.1" rx="1.5" fill="#2a4a7c" stroke="#1c3a66" stroke-width="1"/>
<rect x="143.5" y="410.1" width="26.0" height="57.9" rx="1.5" fill="#2a4a7c" stroke="#1c3a66" stroke-width="1"/>
<rect x="176.8" y="354.2" width="26.0" height="113.8" rx="1.5" fill="#2a4a7c" stroke="#1c3a66" stroke-width="1"/>
<rect x="210.1" y="311.4" width="26.0" height="156.6" rx="1.5" fill="#2a4a7c" stroke="#1c3a66" stroke-width="1"/>
<rect x="243.3" y="246.7" width="26.0" height="221.3" rx="1.5" fill="#2a4a7c" stroke="#1c3a66" stroke-width="1"/>
<rect x="276.6" y="181.4" width="26.0" height="286.6" rx="1.5" fill="#2a4a7c" stroke="#1c3a66" stroke-width="1"/>
<rect x="309.9" y="132.4" width="26.0" height="335.6" rx="1.5" fill="#2a4a7c" stroke="#1c3a66" stroke-width="1"/>
<rect x="343.2" y="107.3" width="26.0" height="360.7" rx="1.5" fill="#2a4a7c" stroke="#1c3a66" stroke-width="1"/>
<rect x="376.5" y="64.0" width="26.0" height="404.0" rx="1.5" fill="#e6b94d" stroke="#e6b94d" stroke-width="1"/>
<rect x="409.7" y="88.5" width="26.0" height="379.5" rx="1.5" fill="#2a4a7c" stroke="#1c3a66" stroke-width="1"/>
<rect x="443.0" y="83.3" width="26.0" height="384.7" rx="1.5" fill="#2a4a7c" stroke="#1c3a66" stroke-width="1"/>
<rect x="476.3" y="94.8" width="26.0" height="373.2" rx="1.5" fill="#2a4a7c" stroke="#1c3a66" stroke-width="1"/>
<rect x="509.6" y="102.6" width="26.0" height="365.4" rx="1.5" fill="#2a4a7c" stroke="#1c3a66" stroke-width="1"/>
<rect x="542.9" y="126.6" width="26.0" height="341.4" rx="1.5" fill="#2a4a7c" stroke="#1c3a66" stroke-width="1"/>
<rect x="576.1" y="115.2" width="26.0" height="352.8" rx="1.5" fill="#2a4a7c" stroke="#1c3a66" stroke-width="1"/>
<rect x="609.4" y="186.1" width="26.0" height="281.9" rx="1.5" fill="#2a4a7c" stroke="#1c3a66" stroke-width="1"/>
<rect x="642.7" y="220.6" width="26.0" height="247.4" rx="1.5" fill="#2a4a7c" stroke="#1c3a66" stroke-width="1"/>
<rect x="676.0" y="264.4" width="26.0" height="203.6" rx="1.5" fill="#2a4a7c" stroke="#1c3a66" stroke-width="1"/>
<rect x="709.3" y="330.2" width="26.0" height="137.8" rx="1.5" fill="#2a4a7c" stroke="#1c3a66" stroke-width="1"/>
<rect x="742.5" y="384.0" width="26.0" height="84.0" rx="1.5" fill="#2a4a7c" stroke="#1c3a66" stroke-width="1"/>
<rect x="775.8" y="413.7" width="26.0" height="54.3" rx="1.5" fill="#2a4a7c" stroke="#1c3a66" stroke-width="1"/>
<rect x="809.1" y="444.0" width="26.0" height="24.0" rx="1.5" fill="#2a4a7c" stroke="#1c3a66" stroke-width="1"/>
<rect x="842.4" y="456.5" width="26.0" height="11.5" rx="1.5" fill="#2a4a7c" stroke="#1c3a66" stroke-width="1"/>
<line x1="40.0" y1="468.0" x2="872.0" y2="468.0" stroke="#b9c8da" stroke-width="1"/>
<text x="40.0" y="490.0" fill="#4f6a8a" font-size="12" text-anchor="middle" font-weight="400" font-family="'JetBrains Mono', ui-monospace, monospace">13.6</text>
<text x="248.0" y="490.0" fill="#4f6a8a" font-size="12" text-anchor="middle" font-weight="400" font-family="'JetBrains Mono', ui-monospace, monospace">16.7</text>
<text x="456.0" y="490.0" fill="#4f6a8a" font-size="12" text-anchor="middle" font-weight="400" font-family="'JetBrains Mono', ui-monospace, monospace">19.8</text>
<text x="664.0" y="490.0" fill="#4f6a8a" font-size="12" text-anchor="middle" font-weight="400" font-family="'JetBrains Mono', ui-monospace, monospace">22.8</text>
<text x="872.0" y="490.0" fill="#4f6a8a" font-size="12" text-anchor="middle" font-weight="400" font-family="'JetBrains Mono', ui-monospace, monospace">25.9</text>
<line x1="460.4" y1="64.0" x2="460.4" y2="468.0" stroke="#e6b94d" stroke-width="2" stroke-dasharray="6 4"/>
<text x="465.4" y="78.0" fill="#e6b94d" font-size="12" text-anchor="start" font-weight="600" font-family="'JetBrains Mono', ui-monospace, monospace">P50</text>
<line x1="637.0" y1="64.0" x2="637.0" y2="468.0" stroke="#f0b44d" stroke-width="2" stroke-dasharray="6 4"/>
<text x="642.0" y="78.0" fill="#f0b44d" font-size="12" text-anchor="start" font-weight="600" font-family="'JetBrains Mono', ui-monospace, monospace">P85</text>
<line x1="717.4" y1="64.0" x2="717.4" y2="468.0" stroke="#f0846b" stroke-width="2" stroke-dasharray="6 4"/>
<text x="722.4" y="78.0" fill="#f0846b" font-size="12" text-anchor="start" font-weight="600" font-family="'JetBrains Mono', ui-monospace, monospace">P95</text>
<rect x="216.0" y="512.0" width="12" height="12" rx="3" fill="#2a4a7c"/>
<text x="235.0" y="522.0" fill="#4f6a8a" font-size="12" text-anchor="start" font-weight="400" font-family="Inter, 'Helvetica Neue', Arial, sans-serif">simulated outcomes</text>
<rect x="375.8" y="512.0" width="12" height="12" rx="3" fill="#e6b94d"/>
<text x="394.8" y="522.0" fill="#4f6a8a" font-size="12" text-anchor="start" font-weight="400" font-family="Inter, 'Helvetica Neue', Arial, sans-serif">mode (most likely)</text>
<rect x="535.6" y="512.0" width="12" height="12" rx="3" fill="#e6b94d"/>
<text x="554.6" y="522.0" fill="#4f6a8a" font-size="12" text-anchor="start" font-weight="400" font-family="Inter, 'Helvetica Neue', Arial, sans-serif">P50</text>
<rect x="596.4" y="512.0" width="12" height="12" rx="3" fill="#f0b44d"/>
<text x="615.4" y="522.0" fill="#4f6a8a" font-size="12" text-anchor="start" font-weight="400" font-family="Inter, 'Helvetica Neue', Arial, sans-serif">P85</text>
<rect x="657.2" y="512.0" width="12" height="12" rx="3" fill="#f0846b"/>
<text x="676.2" y="522.0" fill="#4f6a8a" font-size="12" text-anchor="start" font-weight="400" font-family="Inter, 'Helvetica Neue', Arial, sans-serif">P95</text>
</svg>