<svg xmlns="http://www.w3.org/2000/svg" viewBox="0 0 900 540" width="900" height="540" font-family="Inter, 'Helvetica Neue', Arial, sans-serif">
<rect width="900" height="540" fill="#f0f6fc"/>
<text x="64.0" y="34.0" fill="#0c2a52" font-size="20" text-anchor="start" font-weight="700" font-family="'Space Grotesk', Inter, sans-serif">Days to project completion · n = 10,000</text>
<line x1="64.0" y1="64.0" x2="872.0" y2="64.0" stroke="#d5e1f0" stroke-width="1"/>
<text x="54.0" y="68.0" fill="#4f6a8a" font-size="12" text-anchor="end" font-weight="400" font-family="'JetBrains Mono', ui-monospace, monospace">1,561</text>
<line x1="64.0" y1="169.0" x2="872.0" y2="169.0" stroke="#d5e1f0" stroke-width="1"/>
<text x="54.0" y="173.0" fill="#4f6a8a" font-size="12" text-anchor="end" font-weight="400" font-family="'JetBrains Mono', ui-monospace, monospace">1,171</text>
<line x1="64.0" y1="274.0" x2="872.0" y2="274.0" stroke="#d5e1f0" stroke-width="1"/>
<text x="54.0" y="278.0" fill="#4f6a8a" font-size="12" text-anchor="end" font-weight="400" font-family="'JetBrains Mono', ui-monospace, monospace">780</text>
<line x1="64.0" y1="379.0" x2="872.0" y2="379.0" stroke="#d5e1f0" stroke-width="1"/>
<text x="54.0" y="383.0" fill="#4f6a8a" font-size="12" text-anchor="end" font-weight="400" font-family="'JetBrains Mono', ui-monospace, monospace">390</text>
<line x1="64.0" y1="484.0" x2="872.0" y2="484.0" stroke="#d5e1f0" stroke-width="1"/>
<text x="54.0" y="488.0" fill="#4f6a8a" font-size="12" text-anchor="end" font-weight="400" font-family="'JetBrains Mono', ui-monospace, monospace">0</text>
<rect x="64.0" y="475.9" width="65.8" height="8.1" rx="1.5" fill="#2a4a7c" stroke="#1c3a66" stroke-width="1"/>
<rect x="131.3" y="433.1" width="65.8" height="50.9" rx="1.5" fill="#2a4a7c" stroke="#1c3a66" stroke-width="1"/>
<rect x="198.7" y="327.1" width="65.8" height="156.9" rx="1.5" fill="#2a4a7c" stroke="#1c3a66" stroke-width="1"/>
<rect x="266.0" y="196.6" width="65.8" height="287.4" rx="1.5" fill="#2a4a7c" stroke="#1c3a66" stroke-width="1"/>
<rect x="333.3" y="85.3" width="65.8" height="398.7" rx="1.5" fill="#2a4a7c" stroke="#1c3a66" stroke-width="1"/>
<rect x="400.7" y="64.0" width="65.8" height="420.0" rx="1.5" fill="#e6b94d" stroke="#1c3a66" stroke-width="1"/>
<rect x="468.0" y="95.7" width="65.8" height="388.3" rx="1.5" fill="#2a4a7c" stroke="#1c3a66" stroke-width="1"/>
<rect x="535.3" y="97.1" width="65.8" height="386.9" rx="1.5" fill="#2a4a7c" stroke="#1c3a66" stroke-width="1"/>
<rect x="602.7" y="187.2" width="65.8" height="296.8" rx="1.5" fill="#2a4a7c" stroke="#1c3a66" stroke-width="1"/>
<rect x="670.0" y="286.0" width="65.8" height="198.0" rx="1.5" fill="#2a4a7c" stroke="#1c3a66" stroke-width="1"/>
<rect x="737.3" y="406.0" width="65.8" height="78.0" rx="1.5" fill="#2a4a7c" stroke="#1c3a66" stroke-width="1"/>
<rect x="804.7" y="463.3" width="65.8" height="20.7" rx="1.5" fill="#2a4a7c" stroke="#1c3a66" stroke-width="1"/>
<line x1="64.0" y1="484.0" x2="872.0" y2="484.0" stroke="#b9c8da" stroke-width="1"/>
<text x="64.0" y="506.0" fill="#4f6a8a" font-size="12" text-anchor="middle" font-weight="400" font-family="'JetBrains Mono', ui-monospace, monospace">13.6</text>
<text x="266.0" y="506.0" fill="#4f6a8a" font-size="12" text-anchor="middle" font-weight="400" font-family="'JetBrains Mono', ui-monospace, monospace">16.7</text>
<text x="468.0" y="506.0" fill="#4f6a8a" font-size="12" text-anchor="middle" font-weight="400" font-family="'JetBrains Mono', ui-monospace, monospace">19.8</text>
<text x="670.0" y="506.0" fill="#4f6a8a" font-size="12" text-anchor="middle" font-weight="400" font-family="'JetBrains Mono', ui-monospace, monospace">22.8</text>
<text x="872.0" y="506.0" fill="#4f6a8a" font-size="12" text-anchor="middle" font-weight="400" font-family="'JetBrains Mono', ui-monospace, monospace">25.9</text>
<text x="468.0" y="528.0" fill="#4f6a8a" font-size="13" text-anchor="middle" font-weight="400" font-family="Inter, 'Helvetica Neue', Arial, sans-serif">Duration (days)</text>
<line x1="472.2" y1="64.0" x2="472.2" y2="484.0" stroke="#e6b94d" stroke-width="2" stroke-dasharray="6 4"/>
<text x="477.2" y="78.0" fill="#e6b94d" font-size="12" text-anchor="start" font-weight="600" font-family="'JetBrains Mono', ui-monospace, monospace">P50</text>
<line x1="643.8" y1="64.0" x2="643.8" y2="484.0" stroke="#f0b44d" stroke-width="2" stroke-dasharray="6 4"/>
<text x="648.8" y="78.0" fill="#f0b44d" font-size="12" text-anchor="start" font-weight="600" font-family="'JetBrains Mono', ui-monospace, monospace">P85</text>
<line x1="721.8" y1="64.0" x2="721.8" y2="484.0" stroke="#f0846b" stroke-width="2" stroke-dasharray="6 4"/>
<text x="726.8" y="78.0" fill="#f0846b" font-size="12" text-anchor="start" font-weight="600" font-family="'JetBrains Mono', ui-monospace, monospace">P95</text>
<rect x="704" y="22" width="12" height="12" rx="3" fill="#e6b94d"/>
<text x="722.0" y="32.0" fill="#4f6a8a" font-size="12" text-anchor="start" font-weight="400" font-family="Inter, 'Helvetica Neue', Arial, sans-serif">mode (most likely)</text>
</svg>