<svg xmlns="http://www.w3.org/2000/svg" viewBox="0 0 900 540" width="900" height="540" font-family="Inter, 'Helvetica Neue', Arial, sans-serif">
<rect width="900" height="540" fill="#f0f6fc"/>
<text x="64.0" y="34.0" fill="#0c2a52" font-size="20" text-anchor="start" font-weight="700" font-family="'Space Grotesk', Inter, sans-serif">Cumulative probability · n = 10,000</text>
<line x1="64.0" y1="484.0" x2="872.0" y2="484.0" stroke="#d5e1f0" stroke-width="1"/>
<text x="54.0" y="488.0" fill="#4f6a8a" font-size="12" text-anchor="end" font-weight="400" font-family="'JetBrains Mono', ui-monospace, monospace">0.00</text>
<line x1="64.0" y1="379.0" x2="872.0" y2="379.0" stroke="#d5e1f0" stroke-width="1"/>
<text x="54.0" y="383.0" fill="#4f6a8a" font-size="12" text-anchor="end" font-weight="400" font-family="'JetBrains Mono', ui-monospace, monospace">0.25</text>
<line x1="64.0" y1="274.0" x2="872.0" y2="274.0" stroke="#d5e1f0" stroke-width="1"/>
<text x="54.0" y="278.0" fill="#4f6a8a" font-size="12" text-anchor="end" font-weight="400" font-family="'JetBrains Mono', ui-monospace, monospace">0.50</text>
<line x1="64.0" y1="169.0" x2="872.0" y2="169.0" stroke="#d5e1f0" stroke-width="1"/>
<text x="54.0" y="173.0" fill="#4f6a8a" font-size="12" text-anchor="end" font-weight="400" font-family="'JetBrains Mono', ui-monospace, monospace">0.75</text>
<line x1="64.0" y1="64.0" x2="872.0" y2="64.0" stroke="#d5e1f0" stroke-width="1"/>
<text x="54.0" y="68.0" fill="#4f6a8a" font-size="12" text-anchor="end" font-weight="400" font-family="'JetBrains Mono', ui-monospace, monospace">1.00</text>
<polygon points="64.0 484.0 64.0 484.0 162.3 480.5 187.9 477.0 203.7 473.5 216.4 470.0 227.2 466.5 236.6 463.0 246.4 459.5 254.1 456.0 261.2 452.5 268.4 449.0 273.9 445.5 280.7 442.0 285.9 438.5 292.6 435.0 296.9 431.5 302.2 428.0 307.4 424.5 312.8 421.0 317.4 417.5 321.9 414.0 326.8 410.5 331.1 407.0 335.9 403.5 339.9 400.0 343.5 396.5 347.7 393.0 351.2 389.5 355.3 386.0 359.7 382.5 364.0 379.0 367.7 375.5 372.1 372.0 375.6 368.5 379.8 365.0 383.5 361.5 386.5 358.0 390.0 354.5 393.0 351.0 396.2 347.5 400.1 344.0 403.2 340.5 406.8 337.0 410.2 333.5 414.1 330.0 417.6 326.5 421.3 323.0 425.3 319.5 428.7 316.0 432.6 312.5 436.0 309.0 439.4 305.5 442.6 302.0 446.2 298.5 450.5 295.0 454.4 291.5 458.0 288.0 461.0 284.5 464.5 281.0 468.2 277.5 472.2 274.0 476.5 270.5 480.6 267.0 484.0 263.5 487.8 260.0 491.3 256.5 495.6 253.0 499.7 249.5 503.8 246.0 507.3 242.5 510.8 239.0 514.4 235.5 517.7 232.0 522.8 228.5 526.8 225.0 530.8 221.5 534.4 218.0 538.1 214.5 541.4 211.0 545.2 207.5 548.6 204.0 552.6 200.5 556.6 197.0 560.2 193.5 564.0 190.0 567.1 186.5 571.3 183.0 576.2 179.5 581.7 176.0 585.4 172.5 589.4 169.0 593.3 165.5 596.9 162.0 600.5 158.5 604.5 155.0 609.2 151.5 613.6 148.0 618.2 144.5 623.0 141.0 627.6 137.5 633.7 134.0 638.5 130.5 643.8 127.0 648.3 123.5 653.1 120.0 658.8 116.5 664.6 113.0 671.1 109.5 676.8 106.0 684.1 102.5 690.4 99.0 696.8 95.5 703.9 92.0 712.9 88.5 721.8 85.0 730.7 81.5 742.5 78.0 758.1 74.5 776.8 71.0 801.1 67.5 872.0 64.0 872.0 484.0" fill="#e6b94d" fill-opacity="0.16"/>
<polyline points="64.0 484.0 162.3 480.5 187.9 477.0 203.7 473.5 216.4 470.0 227.2 466.5 236.6 463.0 246.4 459.5 254.1 456.0 261.2 452.5 268.4 449.0 273.9 445.5 280.7 442.0 285.9 438.5 292.6 435.0 296.9 431.5 302.2 428.0 307.4 424.5 312.8 421.0 317.4 417.5 321.9 414.0 326.8 410.5 331.1 407.0 335.9 403.5 339.9 400.0 343.5 396.5 347.7 393.0 351.2 389.5 355.3 386.0 359.7 382.5 364.0 379.0 367.7 375.5 372.1 372.0 375.6 368.5 379.8 365.0 383.5 361.5 386.5 358.0 390.0 354.5 393.0 351.0 396.2 347.5 400.1 344.0 403.2 340.5 406.8 337.0 410.2 333.5 414.1 330.0 417.6 326.5 421.3 323.0 425.3 319.5 428.7 316.0 432.6 312.5 436.0 309.0 439.4 305.5 442.6 302.0 446.2 298.5 450.5 295.0 454.4 291.5 458.0 288.0 461.0 284.5 464.5 281.0 468.2 277.5 472.2 274.0 476.5 270.5 480.6 267.0 484.0 263.5 487.8 260.0 491.3 256.5 495.6 253.0 499.7 249.5 503.8 246.0 507.3 242.5 510.8 239.0 514.4 235.5 517.7 232.0 522.8 228.5 526.8 225.0 530.8 221.5 534.4 218.0 538.1 214.5 541.4 211.0 545.2 207.5 548.6 204.0 552.6 200.5 556.6 197.0 560.2 193.5 564.0 190.0 567.1 186.5 571.3 183.0 576.2 179.5 581.7 176.0 585.4 172.5 589.4 169.0 593.3 165.5 596.9 162.0 600.5 158.5 604.5 155.0 609.2 151.5 613.6 148.0 618.2 144.5 623.0 141.0 627.6 137.5 633.7 134.0 638.5 130.5 643.8 127.0 648.3 123.5 653.1 120.0 658.8 116.5 664.6 113.0 671.1 109.5 676.8 106.0 684.1 102.5 690.4 99.0 696.8 95.5 703.9 92.0 712.9 88.5 721.8 85.0 730.7 81.5 742.5 78.0 758.1 74.5 776.8 71.0 801.1 67.5 872.0 64.0" fill="none" stroke="#e6b94d" stroke-width="2.5" stroke-linejoin="round"/>
<line x1="643.8" y1="64.0" x2="643.8" y2="484.0" stroke="#d99a2e" stroke-width="1.5" stroke-dasharray="4 4"/>
<line x1="64.0" y1="127.0" x2="643.8" y2="127.0" stroke="#d99a2e" stroke-width="1.5" stroke-dasharray="4 4"/>
<circle cx="643.8" cy="127.0" r="4" fill="#d99a2e"/>
<text x="649.8" y="78.0" fill="#d99a2e" font-size="12" text-anchor="start" font-weight="600" font-family="'JetBrains Mono', ui-monospace, monospace">P85 = 22.4</text>
<line x1="64.0" y1="484.0" x2="872.0" y2="484.0" stroke="#b9c8da" stroke-width="1"/>
<text x="64.0" y="506.0" fill="#4f6a8a" font-size="12" text-anchor="middle" font-weight="400" font-family="'JetBrains Mono', ui-monospace, monospace">13.6</text>
<text x="266.0" y="506.0" fill="#4f6a8a" font-size="12" text-anchor="middle" font-weight="400" font-family="'JetBrains Mono', ui-monospace, monospace">16.7</text>
<text x="468.0" y="506.0" fill="#4f6a8a" font-size="12" text-anchor="middle" font-weight="400" font-family="'JetBrains Mono', ui-monospace, monospace">19.8</text>
<text x="670.0" y="506.0" fill="#4f6a8a" font-size="12" text-anchor="middle" font-weight="400" font-family="'JetBrains Mono', ui-monospace, monospace">22.8</text>
<text x="872.0" y="506.0" fill="#4f6a8a" font-size="12" text-anchor="middle" font-weight="400" font-family="'JetBrains Mono', ui-monospace, monospace">25.9</text>
<text x="468.0" y="528.0" fill="#4f6a8a" font-size="13" text-anchor="middle" font-weight="400" font-family="Inter, 'Helvetica Neue', Arial, sans-serif">Duration (days)</text>
</svg>