<svg xmlns="http://www.w3.org/2000/svg" viewBox="0 0 1280 292" width="1280" height="292" font-family="Inter, 'Helvetica Neue', Arial, sans-serif">
<rect width="1280" height="292" fill="#f0f6fc"/>
<text x="40.0" y="34.0" fill="#0c2a52" font-size="20" text-anchor="start" font-weight="700" font-family="'Space Grotesk', Inter, sans-serif">Task Dependencies: App Development</text>
<defs><marker id="arr-edge" viewBox="0 0 10 10" refX="9" refY="5" markerWidth="6" markerHeight="6" orient="auto-start-reverse"><path d="M0 0 L10 5 L0 10 z" fill="#4f6a8a"/></marker><marker id="arr-crit" viewBox="0 0 10 10" refX="9" refY="5" markerWidth="6" markerHeight="6" orient="auto-start-reverse"><path d="M0 0 L10 5 L0 10 z" fill="#e6b94d"/></marker></defs>
<path d="M 190.0 118.0 C 220.0 118.0, 220.0 118.0, 250.0 118.0" fill="none" stroke="#4f6a8a" stroke-width="1.5" opacity="0.6" marker-end="url(#arr-edge)"/>
<path d="M 400.0 118.0 C 430.0 118.0, 430.0 166.0, 460.0 166.0" fill="none" stroke="#4f6a8a" stroke-width="1.5" opacity="0.6" marker-end="url(#arr-edge)"/>
<path d="M 190.0 214.0 C 220.0 214.0, 220.0 214.0, 250.0 214.0" fill="none" stroke="#4f6a8a" stroke-width="1.5" opacity="0.6" marker-end="url(#arr-edge)"/>
<path d="M 610.0 166.0 C 640.0 166.0, 640.0 166.0, 670.0 166.0" fill="none" stroke="#4f6a8a" stroke-width="1.5" opacity="0.6" marker-end="url(#arr-edge)"/>
<path d="M 400.0 214.0 C 535.0 214.0, 535.0 166.0, 670.0 166.0" fill="none" stroke="#4f6a8a" stroke-width="1.5" opacity="0.6" marker-end="url(#arr-edge)"/>
<path d="M 820.0 166.0 C 850.0 166.0, 850.0 118.0, 880.0 118.0" fill="none" stroke="#4f6a8a" stroke-width="1.5" opacity="0.6" marker-end="url(#arr-edge)"/>
<path d="M 820.0 166.0 C 850.0 166.0, 850.0 214.0, 880.0 214.0" fill="none" stroke="#4f6a8a" stroke-width="1.5" opacity="0.6" marker-end="url(#arr-edge)"/>
<path d="M 1030.0 214.0 C 1060.0 214.0, 1060.0 166.0, 1090.0 166.0" fill="none" stroke="#4f6a8a" stroke-width="1.5" opacity="0.6" marker-end="url(#arr-edge)"/>
<rect x="40.0" y="90.0" width="150" height="56" rx="12" fill="#2a9d9d" stroke="#1c3a66" stroke-width="1.5"/>
<rect x="48.0" y="101.0" width="134" height="34" rx="6" fill="#f0f6fc" opacity="0.72"/>
<text x="115.0" y="116.0" fill="#0c2a52" font-size="13" text-anchor="middle" font-weight="600" font-family="'Space Grotesk', Inter, sans-serif">Design UI</text>
<text x="115.0" y="131.0" fill="#4f6a8a" font-size="11" text-anchor="middle" font-weight="400" font-family="'JetBrains Mono', ui-monospace, monospace">(1-3)</text>
<rect x="250.0" y="90.0" width="150" height="56" rx="12" fill="#2a4a7c" stroke="#1c3a66" stroke-width="1.5"/>
<rect x="258.0" y="101.0" width="134" height="34" rx="6" fill="#f0f6fc" opacity="0.72"/>
<text x="325.0" y="116.0" fill="#0c2a52" font-size="13" text-anchor="middle" font-weight="600" font-family="'Space Grotesk', Inter, sans-serif">Develop frontend</text>
<text x="325.0" y="131.0" fill="#4f6a8a" font-size="11" text-anchor="middle" font-weight="400" font-family="'JetBrains Mono', ui-monospace, monospace">(7-14)</text>
<rect x="40.0" y="186.0" width="150" height="56" rx="12" fill="#2a9d9d" stroke="#1c3a66" stroke-width="1.5"/>
<rect x="48.0" y="197.0" width="134" height="34" rx="6" fill="#f0f6fc" opacity="0.72"/>
<text x="115.0" y="212.0" fill="#0c2a52" font-size="13" text-anchor="middle" font-weight="600" font-family="'Space Grotesk', Inter, sans-serif">Develop backend</text>
<text x="115.0" y="227.0" fill="#4f6a8a" font-size="11" text-anchor="middle" font-weight="400" font-family="'JetBrains Mono', ui-monospace, monospace">(5-10)</text>
<rect x="460.0" y="138.0" width="150" height="56" rx="12" fill="#2a4a7c" stroke="#1c3a66" stroke-width="1.5"/>
<rect x="468.0" y="149.0" width="134" height="34" rx="6" fill="#f0f6fc" opacity="0.72"/>
<text x="535.0" y="164.0" fill="#0c2a52" font-size="13" text-anchor="middle" font-weight="600" font-family="'Space Grotesk', Inter, sans-serif">Test frontend</text>
<text x="535.0" y="179.0" fill="#4f6a8a" font-size="11" text-anchor="middle" font-weight="400" font-family="'JetBrains Mono', ui-monospace, monospace">(1-3)</text>
<rect x="250.0" y="186.0" width="150" height="56" rx="12" fill="#2a4a7c" stroke="#1c3a66" stroke-width="1.5"/>
<rect x="258.0" y="197.0" width="134" height="34" rx="6" fill="#f0f6fc" opacity="0.72"/>
<text x="325.0" y="212.0" fill="#0c2a52" font-size="13" text-anchor="middle" font-weight="600" font-family="'Space Grotesk', Inter, sans-serif">Test backend</text>
<text x="325.0" y="227.0" fill="#4f6a8a" font-size="11" text-anchor="middle" font-weight="400" font-family="'JetBrains Mono', ui-monospace, monospace">(2-4)</text>
<rect x="670.0" y="138.0" width="150" height="56" rx="12" fill="#2a4a7c" stroke="#1c3a66" stroke-width="1.5"/>
<rect x="678.0" y="149.0" width="134" height="34" rx="6" fill="#f0f6fc" opacity="0.72"/>
<text x="745.0" y="164.0" fill="#0c2a52" font-size="13" text-anchor="middle" font-weight="600" font-family="'Space Grotesk', Inter, sans-serif">User Acceptance Testing</text>
<text x="745.0" y="179.0" fill="#4f6a8a" font-size="11" text-anchor="middle" font-weight="400" font-family="'JetBrains Mono', ui-monospace, monospace">(2-5)</text>
<rect x="880.0" y="90.0" width="150" height="56" rx="12" fill="#e6b94d" stroke="#1c3a66" stroke-width="1.5"/>
<rect x="888.0" y="101.0" width="134" height="34" rx="6" fill="#f0f6fc" opacity="0.72"/>
<text x="955.0" y="116.0" fill="#0c2a52" font-size="13" text-anchor="middle" font-weight="600" font-family="'Space Grotesk', Inter, sans-serif">Release app</text>
<text x="955.0" y="131.0" fill="#4f6a8a" font-size="11" text-anchor="middle" font-weight="400" font-family="'JetBrains Mono', ui-monospace, monospace">(1-2)</text>
<rect x="880.0" y="186.0" width="150" height="56" rx="12" fill="#2a4a7c" stroke="#1c3a66" stroke-width="1.5"/>
<rect x="888.0" y="197.0" width="134" height="34" rx="6" fill="#f0f6fc" opacity="0.72"/>
<text x="955.0" y="212.0" fill="#0c2a52" font-size="13" text-anchor="middle" font-weight="600" font-family="'Space Grotesk', Inter, sans-serif">Deploy backend</text>
<text x="955.0" y="227.0" fill="#4f6a8a" font-size="11" text-anchor="middle" font-weight="400" font-family="'JetBrains Mono', ui-monospace, monospace">(1-1.5)</text>
<rect x="1090.0" y="138.0" width="150" height="56" rx="12" fill="#e6b94d" stroke="#1c3a66" stroke-width="1.5"/>
<rect x="1098.0" y="149.0" width="134" height="34" rx="6" fill="#f0f6fc" opacity="0.72"/>
<text x="1165.0" y="164.0" fill="#0c2a52" font-size="13" text-anchor="middle" font-weight="600" font-family="'Space Grotesk', Inter, sans-serif">Go live</text>
<text x="1165.0" y="179.0" fill="#4f6a8a" font-size="11" text-anchor="middle" font-weight="400" font-family="'JetBrains Mono', ui-monospace, monospace">(0.25-0.75)</text>
</svg>